<svg width="957" height="312" viewBox="0 0 957 312" fill="none" xmlns="http://www.w3.org/2000/svg">
<path d="M384.382 0L72.421 312.004H0.55838L261.919 50.7323H124.054V0H384.382Z" fill="#FFF1DA"/>
<path d="M368.92 174.84C368.92 144.69 344.478 120.248 314.328 120.248C284.178 120.248 259.736 144.69 259.736 174.84C259.736 204.99 284.178 229.432 314.328 229.432V280.215C256.131 280.215 208.953 233.037 208.953 174.84C208.953 116.643 256.131 69.465 314.328 69.465C372.525 69.465 419.703 116.643 419.703 174.84C419.703 233.037 372.525 280.215 314.328 280.215V229.432C344.478 229.432 368.92 204.99 368.92 174.84Z" fill="#F23005"/>
<path d="M449.137 312.004L449.137 261.272L623.72 261.272L884.872 2.42483e-05L956.585 0.00195312L644.725 312.004L449.137 312.004Z" fill="#FFF1DA"/>
<path d="M663.419 114.205V164.775H488.896L353.117 300.23L317.272 264.472L467.898 114.205H663.419Z" fill="#FFF1DA"/>
</svg>
