<svg width="420" height="312" viewBox="0 0 420 312" fill="none" xmlns="http://www.w3.org/2000/svg">
<path d="M320.184 63.6475C318.061 63.5269 315.922 63.4648 313.77 63.4648C252.259 63.465 202.395 113.329 202.395 174.84C202.395 176.998 202.457 179.141 202.578 181.269L71.8623 312.004H0L261.36 50.7324H123.496V0H383.823L320.184 63.6475Z" fill="#FFF1DA"/>
<path d="M368.361 174.84C368.361 144.69 343.92 120.248 313.77 120.248C283.62 120.248 259.178 144.69 259.178 174.84C259.178 204.99 283.62 229.432 313.77 229.432V280.215C255.573 280.215 208.395 233.037 208.395 174.84C208.395 116.643 255.573 69.465 313.77 69.465C371.967 69.465 419.145 116.643 419.145 174.84C419.145 233.037 371.967 280.215 313.77 280.215V229.432C343.92 229.432 368.361 204.99 368.361 174.84Z" fill="#FFF1DA"/>
</svg>
