<?xml version="1.0" encoding="utf-8"?>
<!-- Generator: Adobe Illustrator 28.0.0, SVG Export Plug-In . SVG Version: 6.00 Build 0)  -->
<svg version="1.1" id="Layer_1" focusable="false" xmlns="http://www.w3.org/2000/svg" xmlns:xlink="http://www.w3.org/1999/xlink"
	 x="0px" y="0px" viewBox="0 0 139.4 281.2" style="enable-background:new 0 0 139.4 281.2;" xml:space="preserve">
<style type="text/css">
	.st0{stroke:#000000;stroke-width:2;stroke-miterlimit:1.1144;}
</style>
<g transform="matrix(1 0 0 -1 0 0)">
	<g>
		<path id="E1-MJAMS-4A" class="st0" d="M36.3-191.8c5.4,0,10-1.9,13.9-5.6s5.9-7.9,6.1-12.5c0-5.4-2-10.3-5.9-14.8
			c-2.6-3.5-2.6-5.6,0-6.1c0.6-0.4,3.1-0.6,7.5-0.6c9.5,0,15.2,2.9,17.3,8.6l2,3.1v84.1c0,57-0.2,86.4-0.6,88
			c-0.7,2.8-2,4.6-3.6,5.6s-5.9,1.5-12.5,1.7c-5.4,0-8.9,0.7-10.6,2c-1.7,2-1.7,4.4,0,7l2,1.1h71.5c0,0-1.8-172-2.1-173.8
			c-3.7-12.1-10-21.2-18.9-27.3c-8.9-6.1-21.2-9.7-36.8-10.6h-3.3c-13,0-23.8,2.7-32.3,8.1S16.7-221.3,16-212.2
			c0,5.9,1.9,10.8,5.6,14.5C25.3-194,30.2-192,36.3-191.8z M112.7-121.9c0,37.5,0,81.4,0,81.6H84.8c0.7-1.5,1.2-3.3,1.4-5.3
			s0.5-9.6,0.8-22.6c0.4-13,0.5-34.8,0.3-65.5v-88l-2-3.6c-1.3-2.2-1.8-3.3-1.4-3.3c0.6,0,1.3,0.1,2.2,0.3s2.7,0.9,5.3,2.2
			s4.9,2.7,7,4.2s4.4,4,7,7.5c2.6,3.5,4.6,7.5,5.9,12C111.6-200.8,112.1-173.9,112.7-121.9z M46.4-210.5c0,2-0.9,4-2.8,5.9
			c-1.9,1.9-4.3,2.8-7.2,2.8c-1.1,0-2.2-0.1-3.3-0.3c-1.1-0.2-2.5-1.1-4.2-2.8c-1.7-1.7-2.4-3.7-2.2-6.1c0-4.6,1.7-8.5,5-11.7
			c0.7-0.6,1.6-1.2,2.5-2s1.9-1.4,2.8-2s1.4-0.7,1.4-0.6l1.1,3.1c1.9,3,3,4.6,3.3,5C45.2-216,46.4-213.1,46.4-210.5z"/>
	</g>
</g>
</svg>
